# xmcd
#
# Track frame offsets: 
#        150
#        35487
#        56383
#        76541
#        101557
#        125604
#        157571
#        176473
#        198619
#        227690
#
# Disc length: 3278 seconds
#
# Revision: 3
# Processed by: cddbd v1.5.2PL0 Copyright (c) Steve Scherf et al.
# Submitted via: ExactAudioCopy v0.95b2
#
DISCID=6d0ccc0a
DTITLE=Taj Mahal - Live at Ronnie Scott's
DYEAR=2001
DGENRE=Rock
TTITLE0=Big Blues
TTITLE1=Mail Box Blues
TTITLE2=Stagger Lee
TTITLE3=Come On in My Kitchen
TTITLE4=Local, Local girl
TTITLE5=Soothin'
TTITLE6=Fishing Blues
TTITLE7=Statesboro Blues
TTITLE8=Everybody Is Somebody
TTITLE9=Taj Mahal Interview
EXTD=YEAR: 2001
EXTT0=
EXTT1=
EXTT2=
EXTT3=
EXTT4=
EXTT5=
EXTT6=
EXTT7=
EXTT8=
EXTT9=
PLAYORDER=
